<svg width="77px" height="80px" viewBox="0 0 77 80" version="1.1" xmlns="http://www.w3.org/2000/svg" xmlns:xlink="http://www.w3.org/1999/xlink">
    <g fill-rule="evenodd">
        <g transform="translate(-529.000000, -11518.000000)">
            <g transform="translate(49.000000, 702.000000)">
                <g transform="translate(0.000000, 9843.000000)">
                    <path d="M547.513672,1038.38903 L547.513672,1005.003 L540.833984,1005.003 C541.49371,1007.16692 541.823568,1009.41668 541.823568,1011.75234 C541.823568,1016.08018 540.768023,1020.07307 538.656901,1023.73112 C536.545779,1027.38918 533.676016,1030.28295 530.047526,1032.41252 C526.419036,1034.54209 522.460742,1035.60686 518.172526,1035.60686 C511.67423,1035.60686 506.116126,1033.27983 501.498047,1028.62568 C496.879968,1023.97154 494.570964,1018.34715 494.570964,1011.75234 C494.570964,1009.41668 494.900821,1007.16692 495.560547,1005.003 L488.583984,1005.003 L488.583984,1038.38903 C488.583984,1039.28208 488.87261,1040.02914 489.44987,1040.63023 C490.02713,1041.23131 490.74457,1041.53185 491.602214,1041.53185 L544.495443,1041.53185 C545.3201,1041.53185 546.029294,1041.23131 546.623047,1040.63023 C547.2168,1040.02914 547.513672,1039.28208 547.513672,1038.38903 L547.513672,1038.38903 Z M533.461589,1010.92799 C533.461589,1006.66885 531.968982,1003.03661 528.983724,1000.03117 C525.998466,997.025721 522.394769,995.523021 518.172526,995.523021 C513.983269,995.523021 510.396065,997.025721 507.410807,1000.03117 C504.425549,1003.03661 502.932943,1006.66885 502.932943,1010.92799 C502.932943,1015.18714 504.425549,1018.81938 507.410807,1021.82482 C510.396065,1024.83027 513.983269,1026.33297 518.172526,1026.33297 C522.394769,1026.33297 525.998466,1024.83027 528.983724,1021.82482 C531.968982,1018.81938 533.461589,1015.18714 533.461589,1010.92799 L533.461589,1010.92799 Z M547.513672,992.3802 L547.513672,983.879128 C547.513672,982.917386 547.183814,982.084461 546.524089,981.380328 C545.864363,980.676195 545.056211,980.324134 544.099609,980.324134 L535.490234,980.324134 C534.533632,980.324134 533.725481,980.676195 533.065755,981.380328 C532.40603,982.084461 532.076172,982.917386 532.076172,983.879128 L532.076172,992.3802 C532.076172,993.37629 532.40603,994.217802 533.065755,994.904761 C533.725481,995.59172 534.533632,995.935194 535.490234,995.935194 L544.099609,995.935194 C545.056211,995.935194 545.864363,995.59172 546.524089,994.904761 C547.183814,994.217802 547.513672,993.37629 547.513672,992.3802 L547.513672,992.3802 Z M556.123047,1042.50142 C556.123047,1045.2836 555.166459,1047.67075 553.253255,1049.66293 C551.340051,1051.65511 549.047539,1052.65119 546.375651,1052.65119 L489.870443,1052.65119 C487.198554,1052.65119 484.906043,1051.65511 482.992839,1049.66293 C481.079635,1047.67075 480.123047,1045.2836 480.123047,1042.50142 L480.123047,983.663697 C480.123047,980.881514 481.079635,978.494368 482.992839,976.502188 C484.906043,974.510007 487.198554,973.513932 489.870443,973.513932 L546.375651,973.513932 C549.047539,973.513932 551.340051,974.510007 553.253255,976.502188 C555.166459,978.494368 556.123047,980.881514 556.123047,983.663697 L556.123047,1042.50142 Z"></path>
                </g>
            </g>
        </g>
    </g>
</svg>