<?xml version="1.0" encoding="UTF-8"?>
<svg width="53px" height="60px" viewBox="0 0 53 60" version="1.1" xmlns="http://www.w3.org/2000/svg" xmlns:xlink="http://www.w3.org/1999/xlink">
    <!-- Generator: Sketch 55.1 (78136) - https://sketchapp.com -->
    <title>exposure</title>
    <desc>Created with Sketch.</desc>
    <g id="Page-1" stroke="none" stroke-width="1" fill="none" fill-rule="evenodd">
        <path d="M26.2680609,0 L53,14.5701204 L53,44.4908187 L26.2680607,60 L0,44.4908177 L0,14.5701202 L26.2680609,0 Z M26.3105461,5.80712388 L4.85411119,17.5568943 L4.85411119,41.6858186 L26.3105459,54.1928761 L48.1458888,41.6858194 L48.1458888,17.5568945 L26.3105461,5.80712388 Z M24.509104,19.6472592 C25.1312247,19.5315959 25.7729084,19.4711101 26.428812,19.4711101 C32.157103,19.4711101 36.8008004,24.0845351 36.8008004,29.7754832 C36.8008004,35.4664314 32.157103,40.0798564 26.428812,40.0798564 C20.700521,40.0798564 16.0568236,35.4664314 16.0568236,29.7754832 C16.0568236,29.1238556 16.1177062,28.486355 16.2341286,27.8682899 C17.2680183,28.7763442 18.6269399,29.327467 20.1154277,29.327467 C23.3531575,29.327467 25.977856,26.719879 25.977856,23.5032561 C25.977856,22.0244717 25.4231168,20.674409 24.509104,19.6472592 Z" id="exposure" fill="#404040"></path>
    </g>
</svg>