<?xml version="1.0" encoding="UTF-8"?>
<svg width="245px" height="268px" viewBox="0 0 245 268" version="1.1" xmlns="http://www.w3.org/2000/svg" xmlns:xlink="http://www.w3.org/1999/xlink">
    <title>detailed</title>
    <g id="Page-1" stroke="none" stroke-width="1" fill="none" fill-rule="evenodd">
        <g id="Artboard" transform="translate(-511.000000, -382.000000)">
            <g id="detailed" transform="translate(511.000000, 382.000000)">
                <path d="M82.8807194,10.6683806 L18.9659796,205.709372 L241.650831,254.218181 L180.677174,267.5 L0.5,267.5 L0.5,86.570193 L82.8807194,10.6683806 Z" id="Rectangle-2" stroke="#979797" fill="#D8D8D8"></path>
                <text id="Database-Optimizatio" font-family="AmericanTypewriter, American Typewriter" font-size="18" font-weight="normal" fill="#000000">
                    <tspan x="28" y="204">Database Optimization</tspan>
                </text>
                <text id="Dashboards" font-family="AmericanTypewriter, American Typewriter" font-size="18" font-weight="normal" fill="#000000">
                    <tspan x="60" y="107">Dashboards</tspan>
                </text>
                <text id="Mobile-UX" font-family="AmericanTypewriter, American Typewriter" font-size="18" font-weight="normal" fill="#000000">
                    <tspan x="90" y="16">Mobile UX</tspan>
                </text>
                <path d="M19.2519531,207.5 C19.8144531,207.5 20.2788086,207.31543 20.6450195,206.946289 C21.0112305,206.577148 21.1943359,206.111328 21.1943359,205.548828 C21.1943359,204.986328 21.0112305,204.523438 20.6450195,204.160156 C20.2788086,203.796875 19.8144531,203.615234 19.2519531,203.615234 C18.6894531,203.615234 18.2250977,203.796875 17.8588867,204.160156 C17.4926758,204.523438 17.3095703,204.986328 17.3095703,205.548828 C17.3095703,206.111328 17.4926758,206.577148 17.8588867,206.946289 C18.2250977,207.31543 18.6894531,207.5 19.2519531,207.5 Z" id="•" fill="#000000" fill-rule="nonzero"></path>
                <path d="M53.2519531,103.5 C53.8144531,103.5 54.2788086,103.31543 54.6450195,102.946289 C55.0112305,102.577148 55.1943359,102.111328 55.1943359,101.548828 C55.1943359,100.986328 55.0112305,100.523438 54.6450195,100.160156 C54.2788086,99.796875 53.8144531,99.6152344 53.2519531,99.6152344 C52.6894531,99.6152344 52.2250977,99.796875 51.8588867,100.160156 C51.4926758,100.523438 51.3095703,100.986328 51.3095703,101.548828 C51.3095703,102.111328 51.4926758,102.577148 51.8588867,102.946289 C52.2250977,103.31543 52.6894531,103.5 53.2519531,103.5 Z" id="•" fill="#000000" fill-rule="nonzero"></path>
                <path d="M83.2519531,12.5 C83.8144531,12.5 84.2788086,12.3154297 84.6450195,11.9462891 C85.0112305,11.5771484 85.1943359,11.1113281 85.1943359,10.5488281 C85.1943359,9.98632812 85.0112305,9.5234375 84.6450195,9.16015625 C84.2788086,8.796875 83.8144531,8.61523438 83.2519531,8.61523438 C82.6894531,8.61523438 82.2250977,8.796875 81.8588867,9.16015625 C81.4926758,9.5234375 81.3095703,9.98632812 81.3095703,10.5488281 C81.3095703,11.1113281 81.4926758,11.5771484 81.8588867,11.9462891 C82.2250977,12.3154297 82.6894531,12.5 83.2519531,12.5 Z" id="•" fill="#000000" fill-rule="nonzero"></path>
            </g>
        </g>
    </g>
</svg>