<?xml version="1.0" standalone="no"?>
<!DOCTYPE svg PUBLIC "-//W3C//DTD SVG 20010904//EN"
 "http://www.w3.org/TR/2001/REC-SVG-20010904/DTD/svg10.dtd">
<svg version="1.0" xmlns="http://www.w3.org/2000/svg"
 width="1024.000000pt" height="1024.000000pt" viewBox="0 0 1024.000000 1024.000000"
 preserveAspectRatio="xMidYMid meet">
<metadata>
Created by potrace 1.11, written by Peter Selinger 2001-2013
</metadata>
<g transform="translate(0.000000,1024.000000) scale(0.100000,-0.100000)"
fill="#000000" stroke="none">
<path d="M2078 9327 c29 -49 127 -217 151 -260 12 -21 62 -108 111 -192 49
-84 99 -171 111 -192 28 -50 167 -294 179 -313 5 -8 40 -69 78 -135 38 -66
111 -192 163 -280 51 -88 102 -177 113 -197 12 -20 45 -77 74 -127 28 -50 52
-95 52 -101 0 -5 4 -10 8 -10 4 0 15 -15 23 -32 9 -18 71 -127 138 -243 68
-115 133 -228 146 -250 12 -22 43 -76 70 -120 26 -44 51 -89 56 -100 5 -11 18
-33 28 -50 24 -39 129 -220 155 -267 12 -21 113 -196 224 -389 223 -385 209
-361 311 -539 39 -69 75 -132 80 -140 16 -25 243 -419 593 -1025 184 -319 453
-785 598 -1035 144 -250 270 -468 279 -485 9 -16 24 -41 32 -55 9 -14 97 -164
194 -335 98 -170 215 -373 260 -450 45 -77 84 -147 88 -155 4 -8 17 -31 28
-50 22 -37 192 -329 227 -390 94 -166 345 -597 352 -604 12 -12 1775 -12 1775
0 0 8 -43 90 -65 124 -11 18 -355 614 -392 680 -14 25 -46 81 -72 125 -26 44
-51 87 -56 95 -5 8 -22 38 -38 66 -17 28 -47 82 -68 120 -20 38 -43 76 -50 85
-8 8 -14 18 -14 21 0 3 -54 99 -121 213 -66 115 -131 227 -143 249 -22 38 -63
110 -296 511 -51 88 -104 180 -118 205 -14 25 -45 78 -69 118 -24 41 -43 75
-43 77 0 2 -27 49 -60 104 -33 56 -60 106 -60 111 0 6 -4 10 -8 10 -4 0 -13
12 -20 28 -7 15 -18 36 -25 47 -7 11 -42 71 -77 133 -36 62 -69 120 -75 130
-16 27 -199 345 -210 365 -10 17 -204 353 -363 627 -46 80 -88 152 -93 160
-21 35 -104 179 -129 225 -15 28 -76 133 -135 235 -247 425 -369 637 -388 670
-82 146 -373 650 -388 672 -11 15 -19 29 -19 32 0 3 -22 43 -49 88 -48 81
-364 629 -403 698 -11 19 -53 91 -93 160 -40 69 -84 145 -97 170 -14 25 -74
128 -133 230 -60 102 -119 205 -133 229 -14 25 -38 68 -55 95 -16 28 -38 66
-48 84 -18 32 -276 479 -308 534 l-16 27 -893 0 -893 1 19 -33z"/>
<path d="M4541 9302 c18 -31 96 -167 174 -302 78 -135 153 -265 167 -290 14
-25 84 -146 155 -270 72 -124 141 -244 154 -266 13 -23 62 -108 109 -188 l84
-146 1578 0 1578 0 0 760 0 759 -2016 0 -2015 0 32 -57z"/>
<path d="M1440 9104 c-5 -6537 -4 -8264 5 -8265 12 0 1467 0 1515 0 l35 1 0
1605 0 1605 732 0 732 0 -17 33 c-9 17 -20 34 -24 35 -5 2 -8 8 -8 12 0 5 -14
33 -31 62 -18 29 -40 68 -50 85 -10 18 -69 119 -130 225 -135 232 -228 394
-246 428 -7 14 -98 171 -202 350 l-188 325 -284 5 -284 5 0 491 c0 354 -3 495
-12 505 -6 8 -24 37 -40 64 -34 62 -261 454 -273 475 -17 27 -102 175 -132
230 -11 19 -28 50 -39 69 -41 69 -277 477 -301 521 -14 25 -64 112 -112 193
-47 82 -97 167 -110 190 -12 23 -97 170 -188 327 -91 157 -206 357 -257 444
l-91 160 0 -180z"/>
<path d="M6680 5602 c0 -4 8 -20 18 -37 17 -28 55 -93 89 -155 8 -14 23 -41
35 -60 11 -19 81 -141 156 -270 74 -129 184 -319 244 -422 59 -102 122 -213
139 -245 18 -32 38 -65 45 -74 8 -8 14 -18 14 -22 0 -4 27 -51 59 -105 32 -55
66 -113 75 -131 l17 -31 482 2 482 3 1 765 c0 421 -2 771 -4 777 -3 10 -198
13 -928 13 -508 0 -924 -4 -924 -8z"/>
</g>
</svg>
