<svg width="75px" height="86px" viewBox="0 0 75 86" version="1.1" xmlns="http://www.w3.org/2000/svg" xmlns:xlink="http://www.w3.org/1999/xlink">
    <defs>
        <path id="path-1" d="M29.3217664,0.269637329 L0.196907258,16.5303433 L0.196907258,49.9227696 L29.3217661,67.231498 L58.960953,49.9227707 L58.9609512,16.5303435 L29.3217664,0.269637329 Z"></path>
    </defs>
    <g fill-rule="evenodd">
        <g transform="translate(-912.000000, -7685.000000)">
            <g transform="translate(48.000000, 695.000000)">
                <g transform="translate(0.000000, 6161.000000)">
                    <g transform="translate(872.000000, 838.000000)">
                        <path d="M27.3715131,22.1965879 C28.0612929,22.067504 28.7727633,22 29.5,22 C35.8512746,22 41,27.1487254 41,33.5 C41,39.8512746 35.8512746,45 29.5,45 C23.1487254,45 18,39.8512746 18,33.5 C18,32.7727633 18.067504,32.0612929 18.1965879,31.3715131 C19.3429189,32.3849299 20.8496308,33 22.5,33 C26.0898509,33 29,30.0898509 29,26.5 C29,24.8496308 28.3849299,23.3429189 27.3715131,22.1965879 Z"></path>
                        <g id="Path-50" fill="none">
                            <use class="dark-stroke" stroke-width="16" xlink:href="#path-1"></use>
                            <use class="white-stroke" stroke-width="9" xlink:href="#path-1"></use>
                        </g>
                    </g>
                </g>
            </g>
        </g>
    </g>
</svg>