<?xml version="1.0" encoding="UTF-8" standalone="no"?>
<svg width="77px" height="76px" viewBox="0 0 77 76" version="1.1" xmlns="http://www.w3.org/2000/svg" xmlns:xlink="http://www.w3.org/1999/xlink" xmlns:sketch="http://www.bohemiancoding.com/sketch/ns">
    <!-- Generator: Sketch 3.2.2 (9983) - http://www.bohemiancoding.com/sketch -->
    <title>instagram</title>
    <desc>Created with Sketch.</desc>
    <defs></defs>
    <g id="After-GH-Comment" stroke="none" stroke-width="1" fill="none" fill-rule="evenodd" sketch:type="MSPage">
        <g id="Site-+-Portfolio" sketch:type="MSLayerGroup" transform="translate(-528.000000, -7689.000000)" fill="#404031">
            <g id="Portfolio" transform="translate(48.000000, 695.000000)" sketch:type="MSShapeGroup">
                <g id="Photography" transform="translate(0.000000, 6161.000000)">
                    <path d="M547.513672,897.223958 L547.513672,865.161458 L540.833984,865.161458 C541.49371,867.239594 541.823568,869.400162 541.823568,871.643229 C541.823568,875.7995 540.768023,879.634097 538.656901,883.147135 C536.545779,886.660174 533.676016,889.439226 530.047526,891.484375 C526.419036,893.529524 522.460742,894.552083 518.172526,894.552083 C511.67423,894.552083 506.116126,892.317297 501.498047,887.847656 C496.879968,883.378016 494.570964,877.976594 494.570964,871.643229 C494.570964,869.400162 494.900821,867.239594 495.560547,865.161458 L488.583984,865.161458 L488.583984,897.223958 C488.583984,898.081602 488.87261,898.799042 489.44987,899.376302 C490.02713,899.953562 490.74457,900.242187 491.602214,900.242187 L544.495443,900.242187 C545.3201,900.242187 546.029294,899.953562 546.623047,899.376302 C547.2168,898.799042 547.513672,898.081602 547.513672,897.223958 L547.513672,897.223958 Z M533.461589,870.851563 C533.461589,866.761264 531.968982,863.273018 528.983724,860.386719 C525.998466,857.50042 522.394769,856.057292 518.172526,856.057292 C513.983269,856.057292 510.396065,857.50042 507.410807,860.386719 C504.425549,863.273018 502.932943,866.761264 502.932943,870.851563 C502.932943,874.941861 504.425549,878.430107 507.410807,881.316406 C510.396065,884.202705 513.983269,885.645833 518.172526,885.645833 C522.394769,885.645833 525.998466,884.202705 528.983724,881.316406 C531.968982,878.430107 533.461589,874.941861 533.461589,870.851563 L533.461589,870.851563 Z M547.513672,853.039062 L547.513672,844.875 C547.513672,843.951384 547.183814,843.151479 546.524089,842.47526 C545.864363,841.799042 545.056211,841.460938 544.099609,841.460938 L535.490234,841.460938 C534.533632,841.460938 533.725481,841.799042 533.065755,842.47526 C532.40603,843.151479 532.076172,843.951384 532.076172,844.875 L532.076172,853.039062 C532.076172,853.995665 532.40603,854.803816 533.065755,855.463542 C533.725481,856.123267 534.533632,856.453125 535.490234,856.453125 L544.099609,856.453125 C545.056211,856.453125 545.864363,856.123267 546.524089,855.463542 C547.183814,854.803816 547.513672,853.995665 547.513672,853.039062 L547.513672,853.039062 Z M556.123047,899.252604 C556.123047,901.924493 555.166459,904.217004 553.253255,906.130208 C551.340051,908.043412 549.047539,909 546.375651,909 L489.870443,909 C487.198554,909 484.906043,908.043412 482.992839,906.130208 C481.079635,904.217004 480.123047,901.924493 480.123047,899.252604 L480.123047,842.747396 C480.123047,840.075507 481.079635,837.782996 482.992839,835.869792 C484.906043,833.956588 487.198554,833 489.870443,833 L546.375651,833 C549.047539,833 551.340051,833.956588 553.253255,835.869792 C555.166459,837.782996 556.123047,840.075507 556.123047,842.747396 L556.123047,899.252604 Z" id="instagram"></path>
                </g>
            </g>
        </g>
    </g>
</svg>