<?xml version="1.0" encoding="UTF-8" standalone="no"?>
<svg width="77px" height="76px" viewBox="0 0 77 76" version="1.1" xmlns="http://www.w3.org/2000/svg" xmlns:xlink="http://www.w3.org/1999/xlink" xmlns:sketch="http://www.bohemiancoding.com/sketch/ns">
    <!-- Generator: Sketch 3.2.2 (9983) - http://www.bohemiancoding.com/sketch -->
    <title>instagram_hover</title>
    <desc>Created with Sketch.</desc>
    <defs></defs>
    <g id="After-GH-Comment" stroke="none" stroke-width="1" fill="none" fill-rule="evenodd" sketch:type="MSPage">
        <g id="Site-+-Portfolio" sketch:type="MSLayerGroup" transform="translate(-612.000000, -7689.000000)" fill="#398CCC">
            <g id="Portfolio" transform="translate(48.000000, 695.000000)" sketch:type="MSShapeGroup">
                <g id="Photography" transform="translate(0.000000, 6161.000000)">
                    <path d="M631.513672,897.223958 L631.513672,865.161458 L624.833984,865.161458 C625.49371,867.239594 625.823568,869.400162 625.823568,871.643229 C625.823568,875.7995 624.768023,879.634097 622.656901,883.147135 C620.545779,886.660174 617.676016,889.439226 614.047526,891.484375 C610.419036,893.529524 606.460742,894.552083 602.172526,894.552083 C595.67423,894.552083 590.116126,892.317297 585.498047,887.847656 C580.879968,883.378016 578.570964,877.976594 578.570964,871.643229 C578.570964,869.400162 578.900821,867.239594 579.560547,865.161458 L572.583984,865.161458 L572.583984,897.223958 C572.583984,898.081602 572.87261,898.799042 573.44987,899.376302 C574.02713,899.953562 574.74457,900.242187 575.602214,900.242187 L628.495443,900.242187 C629.3201,900.242187 630.029294,899.953562 630.623047,899.376302 C631.2168,898.799042 631.513672,898.081602 631.513672,897.223958 L631.513672,897.223958 Z M617.461589,870.851563 C617.461589,866.761264 615.968982,863.273018 612.983724,860.386719 C609.998466,857.50042 606.394769,856.057292 602.172526,856.057292 C597.983269,856.057292 594.396065,857.50042 591.410807,860.386719 C588.425549,863.273018 586.932943,866.761264 586.932943,870.851563 C586.932943,874.941861 588.425549,878.430107 591.410807,881.316406 C594.396065,884.202705 597.983269,885.645833 602.172526,885.645833 C606.394769,885.645833 609.998466,884.202705 612.983724,881.316406 C615.968982,878.430107 617.461589,874.941861 617.461589,870.851563 L617.461589,870.851563 Z M631.513672,853.039062 L631.513672,844.875 C631.513672,843.951384 631.183814,843.151479 630.524089,842.47526 C629.864363,841.799042 629.056211,841.460938 628.099609,841.460938 L619.490234,841.460938 C618.533632,841.460938 617.725481,841.799042 617.065755,842.47526 C616.40603,843.151479 616.076172,843.951384 616.076172,844.875 L616.076172,853.039062 C616.076172,853.995665 616.40603,854.803816 617.065755,855.463542 C617.725481,856.123267 618.533632,856.453125 619.490234,856.453125 L628.099609,856.453125 C629.056211,856.453125 629.864363,856.123267 630.524089,855.463542 C631.183814,854.803816 631.513672,853.995665 631.513672,853.039062 L631.513672,853.039062 Z M640.123047,899.252604 C640.123047,901.924493 639.166459,904.217004 637.253255,906.130208 C635.340051,908.043412 633.047539,909 630.375651,909 L573.870443,909 C571.198554,909 568.906043,908.043412 566.992839,906.130208 C565.079635,904.217004 564.123047,901.924493 564.123047,899.252604 L564.123047,842.747396 C564.123047,840.075507 565.079635,837.782996 566.992839,835.869792 C568.906043,833.956588 571.198554,833 573.870443,833 L630.375651,833 C633.047539,833 635.340051,833.956588 637.253255,835.869792 C639.166459,837.782996 640.123047,840.075507 640.123047,842.747396 L640.123047,899.252604 Z" id="instagram_hover"></path>
                </g>
            </g>
        </g>
    </g>
</svg>